<?xml version="1.0" encoding="UTF-8"?>
<svg version="1.1" xmlns="http://www.w3.org/2000/svg" width="512" height="512">
<path d="M0 0 C3.23441674 2.58306056 6.4396264 5.20145464 9.63647461 7.83081055 C16.29079044 13.29082135 23.1628433 18.4273982 30.07177734 23.55810547 C35.09277461 27.31272814 40.04208273 31.16270787 45 35 C44.97679687 34.154375 44.95359375 33.30875 44.9296875 32.4375 C44.66223486 15.62619121 44.66223486 15.62619121 50 9 C55.41246884 5.2775531 59.28928378 4.40099292 65.78515625 4.46875 C67.0141288 4.46300964 67.0141288 4.46300964 68.26792908 4.45715332 C69.98991128 4.45444595 71.71193543 4.46172445 73.43383789 4.47851562 C76.05904242 4.49997174 78.68151943 4.47866168 81.30664062 4.453125 C82.98698516 4.45576795 84.66732801 4.46089225 86.34765625 4.46875 C87.51507103 4.45660461 87.51507103 4.45660461 88.70606995 4.44421387 C93.90746485 4.53311022 96.87040156 5.57706046 101 9 C104.96360385 14.249097 106.13639404 17.71977157 105.9831543 24.22460938 C105.95791183 25.5102478 105.93266937 26.79588623 105.90666199 28.1204834 C105.8922576 28.80801193 105.8778532 29.49554047 105.86301231 30.2039032 C105.7827176 34.63294707 105.77069185 39.06280745 105.74791241 43.49245453 C105.7241095 47.37545707 105.67543169 51.25497293 105.5715332 55.13671875 C104.19189057 72.73274184 104.19189057 72.73274184 109.95947266 88.35351562 C112.76177778 90.84005902 115.74214665 92.53248526 119.14474487 94.06547546 C122.44531276 95.72802938 125.17258733 98.14581455 128 100.5 C128.65258789 101.01264404 129.30517578 101.52528809 129.97753906 102.0534668 C132.77256674 104.24911632 135.5667691 106.44580216 138.359375 108.64453125 C139.48958077 109.53385742 140.61978913 110.42318031 141.75 111.3125 C142.31428711 111.75706543 142.87857422 112.20163086 143.45996094 112.65966797 C146.80243465 115.2885486 150.15979376 117.89665134 153.53125 120.48828125 C178.59128558 139.77022572 178.59128558 139.77022572 181.75 150.5625 C182.94782067 162.24125155 179.37828858 170.80666684 172.484375 180.0625 C168.42308941 184.86452322 163.95347114 188.01550962 158 190 C154.04 190 150.08 190 146 190 C145.67 206.17 145.34 222.34 145 239 C138.73 240.65 132.46 242.3 126 244 C121.04221264 245.96143474 121.04221264 245.96143474 116.15234375 248.08203125 C114 249 114 249 112 249 C112.02117889 247.47356369 112.02117889 247.47356369 112.04278564 245.91629028 C112.16838139 236.29486271 112.23018148 226.67482359 112.23059464 217.05255318 C112.23282866 212.10606631 112.25701113 207.16177439 112.33251953 202.21582031 C112.40466028 197.43629492 112.4176223 192.65983662 112.39070892 187.879879 C112.39065341 186.06265109 112.4114101 184.24529194 112.4539566 182.42856216 C112.98752248 171.8082737 112.98752248 171.8082737 108.38739014 162.71095276 C105.49834515 160.09490311 102.31841628 158.03978386 99 156 C97.54384099 154.8964333 96.09745718 153.77951093 94.671875 152.63671875 C93.36615098 151.65156463 92.05885507 150.66849045 90.75 149.6875 C84.99504465 145.33224037 79.33325787 140.88577555 73.75 136.3125 C67.52352172 131.21454262 61.20682428 126.269058 54.80908203 121.38671875 C42.87456508 112.23853302 31.06204857 102.92937757 19.25146484 93.62207031 C16.32217762 91.31385336 13.39060509 89.00872173 10.453125 86.7109375 C8.13758673 84.89906151 5.83805051 83.06912532 3.546875 81.2265625 C-6.6778169 73.07508002 -15.64623759 68.01583543 -29 69 C-37.30403206 70.20329127 -42.97880983 74.50256165 -49.38183594 79.69238281 C-51.03559343 81.02876258 -52.70593139 82.34121721 -54.3828125 83.6484375 C-57.33654928 85.95225246 -60.27880042 88.27016614 -63.21777344 90.59277344 C-66.14079862 92.90076209 -69.07067062 95.20002193 -72 97.5 C-75.45434029 100.21330228 -78.90816059 102.92725363 -82.359375 105.64453125 C-89.65890138 111.38952887 -96.983049 117.10203617 -104.31835938 122.80126953 C-110.66783028 127.73658931 -116.99591836 132.69850748 -123.31445312 137.67333984 C-126.20808829 139.95086208 -129.10420687 142.22522268 -132 144.5 C-133.15495354 145.40754493 -134.30990145 146.31509702 -135.46484375 147.22265625 C-137.91488948 149.14774113 -140.36549408 151.07211212 -142.81640625 152.99609375 C-143.44353516 153.48851562 -144.07066406 153.9809375 -144.71679688 154.48828125 C-145.90935999 155.42466414 -147.10205882 156.36087423 -148.29492188 157.296875 C-150.8148427 159.27574521 -153.31653922 161.26400529 -155.77734375 163.31640625 C-158 165 -158 165 -160 165 C-159.98618376 189.46993348 -159.94390712 213.9396753 -159.86790943 238.40949821 C-159.83328182 249.77171849 -159.80790682 261.13381771 -159.80444336 272.49609375 C-159.80140038 282.40145767 -159.78086486 292.30660589 -159.73947543 302.21188653 C-159.71817422 307.45490196 -159.70553011 312.69761096 -159.71384621 317.94067001 C-159.72140444 322.88037463 -159.70549134 327.81945926 -159.67193985 332.75905037 C-159.66372796 334.56734579 -159.66393131 336.37570312 -159.67340279 338.18399239 C-159.83372651 351.86955654 -159.83372651 351.86955654 -154 364 C-148.29240444 369.39118898 -142.08054405 371.22895926 -134.26025391 371.31884766 C-133.61564209 371.32889328 -132.97103027 371.3389389 -132.30688477 371.34928894 C-130.19678562 371.37994044 -128.08681226 371.39710505 -125.9765625 371.4140625 C-124.50539074 371.43278874 -123.03422955 371.45236322 -121.56307983 371.4727478 C-117.70642349 371.52392149 -113.84973239 371.56362578 -109.99291992 371.60089111 C-106.05118311 371.64102376 -102.10958907 371.69207369 -98.16796875 371.7421875 C-90.4454107 371.83877178 -82.72278317 371.92323201 -75 372 C-75.00368717 371.45207007 -75.00737434 370.90414015 -75.01117325 370.33960629 C-75.0999287 356.94035644 -75.16564836 343.54115885 -75.20724869 330.1416769 C-75.22804832 323.66147783 -75.25622602 317.18149226 -75.30175781 310.70141602 C-75.34548816 304.43792204 -75.36919432 298.17463235 -75.37950897 291.91099739 C-75.38685175 289.53140107 -75.40118931 287.15181486 -75.42292023 284.77230644 C-75.60444163 264.05618234 -74.17979033 246.64591036 -59.375 230.6875 C-47.67862168 219.61516625 -35.01942772 216.34079223 -19.484375 216.6875 C-6.33791851 217.35090403 5.07499504 224.19827518 13.96484375 233.58984375 C24.02952913 245.50905849 27.16897478 259.35268929 27.11352539 274.59521484 C27.11367142 275.64947662 27.11381744 276.7037384 27.1139679 277.78994751 C27.11327299 281.263632 27.10550035 284.73726241 27.09765625 288.2109375 C27.09579057 290.62374848 27.09436737 293.03655984 27.09336853 295.44937134 C27.08955517 301.79181977 27.07973495 308.13424521 27.06866455 314.47668457 C27.05842505 320.95190113 27.05386547 327.42712142 27.04882812 333.90234375 C27.03811163 346.60157421 27.02052437 359.3007816 27 372 C34.59 372 42.18 372 50 372 C50.70125 374.84625 51.4025 377.6925 52.125 380.625 C54.05816507 388.22524274 56.54113435 395.21632728 59.86328125 402.3125 C61 405 61 405 61 408 C35.19959039 408.07022447 9.3991952 408.12305387 -16.40129089 408.15543652 C-28.38214319 408.17087506 -40.36293594 408.19190676 -52.34375 408.22631836 C-62.79183144 408.25631318 -73.23986974 408.27559687 -83.68799305 408.28226548 C-89.21509458 408.28616071 -94.74207272 408.2952517 -100.26913452 408.31719017 C-105.48279795 408.33771491 -110.69628841 408.34380181 -115.9099884 408.33932304 C-117.8125452 408.34014115 -119.71510843 408.34601074 -121.61763 408.35761642 C-142.22967401 408.47707183 -161.24489405 406.46918871 -176.8203125 391.37890625 C-192.31129705 374.47207903 -194.16880749 356.08180368 -194.11352539 334.17724609 C-194.11324284 332.59943646 -194.11340258 331.0216267 -194.1139679 329.44381714 C-194.11425322 325.18833499 -194.10839949 320.93288139 -194.10139394 316.67740583 C-194.09511612 312.21980404 -194.09455311 307.76220148 -194.09336853 303.30459595 C-194.09026822 294.87592249 -194.08207245 286.4472621 -194.07201904 278.01859438 C-194.06081741 268.4175796 -194.05533727 258.81656416 -194.05032361 249.21554446 C-194.03988868 229.47702237 -194.02231455 209.73851201 -194 190 C-195.2080127 190.03262939 -195.2080127 190.03262939 -196.44042969 190.06591797 C-197.50680664 190.08283691 -198.57318359 190.09975586 -199.671875 190.1171875 C-201.2511377 190.14981689 -201.2511377 190.14981689 -202.86230469 190.18310547 C-209.15801907 189.8157085 -213.79778793 187.18673079 -218.22265625 182.79296875 C-224.86521127 174.90881467 -230.45393931 165.84632523 -230.19921875 155.265625 C-229.34118789 145.50762703 -225.10490878 139.55127953 -218 133 C-214.32975466 129.97264731 -210.55989952 127.11687393 -206.73242188 124.29296875 C-203.79960213 122.1040999 -200.93346232 119.83151869 -198.0625 117.5625 C-196.88159634 116.63270336 -195.70060655 115.7030161 -194.51953125 114.7734375 C-193.34633462 113.84898314 -192.17315729 112.92450429 -191 112 C-182.58297964 105.37047168 -174.14238653 98.77238077 -165.68164062 92.19873047 C-159.33216972 87.26341069 -153.00408164 82.30149252 -146.68554688 77.32666016 C-143.79191173 75.04913794 -140.89580677 72.77475993 -138 70.5 C-136.83332204 69.5833477 -135.66665536 68.66668105 -134.5 67.75 C-131 65 -131 65 -127.5 62.25 C-126.92282227 61.7964917 -126.34564453 61.3429834 -125.75097656 60.87573242 C-124.58109984 59.95656687 -123.41117777 59.03745905 -122.24121094 58.1184082 C-119.37328843 55.86543906 -116.5060901 53.61156277 -113.640625 51.35546875 C-106.34109862 45.61047113 -99.016951 39.89796383 -91.68164062 34.19873047 C-87.02837872 30.58184083 -82.38298145 26.95533134 -77.75 23.3125 C-77.18651855 22.86962646 -76.62303711 22.42675293 -76.04248047 21.97045898 C-73.21989767 19.75061947 -70.40089048 17.52638192 -67.5859375 15.296875 C-64.0697066 12.51520089 -60.5401335 9.7511842 -57 7 C-56.32050293 6.47132324 -55.64100586 5.94264648 -54.94091797 5.39794922 C-52.82161523 3.75618114 -50.69348595 2.1265652 -48.5625 0.5 C-47.9123291 -0.0045874 -47.2621582 -0.5091748 -46.59228516 -1.02905273 C-31.65805475 -12.34001558 -14.60785732 -11.27322126 0 0 Z " fill="#FFFFFF" transform="translate(237,32)"/>
<path d="M0 0 C3.26776028 2.7583801 6.34657272 5.68615415 9.37402344 8.70361328 C10.23125 9.55439453 11.08847656 10.40517578 11.97167969 11.28173828 C28.99855044 28.44703888 40.36261266 52.30332821 41.37402344 76.70361328 C41.42558594 77.68716797 41.47714844 78.67072266 41.53027344 79.68408203 C42.3344468 108.80185927 31.7307813 135.48502055 11.87133789 156.65771484 C-8.01798551 177.14267035 -34.76792765 187.48287955 -63.18847656 187.95361328 C-87.95912419 187.5163329 -110.55834013 179.52975152 -129.62597656 163.70361328 C-130.48707031 163.00623047 -131.34816406 162.30884766 -132.23535156 161.59033203 C-152.62721993 144.26990968 -164.60946289 118.41356882 -166.85791016 91.9765625 C-168.46283105 63.50820225 -160.16805038 36.14581303 -141.18115234 14.6105957 C-105.92435889 -24.26439727 -42.39143448 -33.79857614 0 0 Z M-71.62597656 4.70361328 C-71.62597656 10.31361328 -71.62597656 15.92361328 -71.62597656 21.70361328 C-72.86347656 21.76548828 -74.10097656 21.82736328 -75.37597656 21.89111328 C-86.77551846 23.21747507 -96.05415666 28.7632762 -103.18457031 37.64501953 C-109.33813428 46.68363723 -110.89567972 56.95266881 -109.62597656 67.70361328 C-106.76538401 77.80397711 -102.18858215 84.90924353 -93.00878906 90.12939453 C-81.26288864 95.59544288 -68.49406679 98.99524336 -55.87597656 101.78173828 C-52.64688045 102.69768381 -50.31653574 103.7067526 -47.62597656 105.70361328 C-46.64477143 108.77805603 -46.42665072 110.80664697 -47.12597656 113.95361328 C-49.96281766 117.26326122 -53.87476841 117.53889568 -57.99316406 117.92626953 C-64.59531665 118.16279525 -71.32064191 117.6338243 -76.45019531 113.08642578 C-79.04765089 110.15564055 -80.95222022 107.2457488 -82.62597656 103.70361328 C-93.77589475 105.08598487 -104.66017371 107.29534528 -115.62597656 109.70361328 C-111.61469663 122.49054865 -105.66618442 133.15082982 -93.47338867 139.64794922 C-86.20664749 143.30868893 -79.86819516 145.70361328 -71.62597656 145.70361328 C-71.62597656 151.31361328 -71.62597656 156.92361328 -71.62597656 162.70361328 C-65.68597656 162.70361328 -59.74597656 162.70361328 -53.62597656 162.70361328 C-53.62597656 157.09361328 -53.62597656 151.48361328 -53.62597656 145.70361328 C-52.42972656 145.64173828 -51.23347656 145.57986328 -50.00097656 145.51611328 C-36.02695578 143.9071172 -25.04356095 137.46780924 -16.12988281 126.81689453 C-10.25510789 118.56169133 -8.90420239 109.63469124 -9.62597656 99.70361328 C-11.24265524 90.51046586 -15.93821026 81.90227402 -23.39477539 76.13354492 C-32.45872239 70.32464487 -43.84535753 68.13402836 -54.18847656 65.51611328 C-56.20074291 65.00295515 -58.2123322 64.48749695 -60.22264099 63.96672058 C-62.0218276 63.50110819 -63.82299116 63.04315439 -65.62426758 62.58569336 C-70.40923238 61.17958699 -70.40923238 61.17958699 -72.62597656 59.70361328 C-73.64678201 56.02871367 -74.17452145 53.80070306 -72.43847656 50.32861328 C-68.94006929 47.19211021 -64.50385209 47.42211512 -60.00097656 47.48876953 C-53.37498755 48.08815998 -48.9422741 50.62561618 -44.62597656 55.70361328 C-43.96597656 56.69361328 -43.30597656 57.68361328 -42.62597656 58.70361328 C-35.66948841 57.08306774 -28.78239053 55.24492921 -21.93847656 53.20361328 C-21.23142578 53.00227783 -20.524375 52.80094238 -19.79589844 52.59350586 C-17.57812334 51.9482612 -17.57812334 51.9482612 -14.62597656 50.70361328 C-13.27611483 47.78435961 -13.27611483 47.78435961 -14.66503906 45.39892578 C-21.14460451 34.89756109 -29.65477086 26.56409512 -41.62597656 22.70361328 C-45.62218587 21.85520214 -49.57351139 21.26257399 -53.62597656 20.70361328 C-53.62597656 15.42361328 -53.62597656 10.14361328 -53.62597656 4.70361328 C-59.56597656 4.70361328 -65.50597656 4.70361328 -71.62597656 4.70361328 Z " fill="#216FAA" transform="translate(463.6259765625,301.29638671875)"/>
</svg>
